<?xml version="1.0" encoding="UTF-8" standalone="no"?>
<!-- Created with Inkscape (http://www.inkscape.org/) -->

<svg
   xmlns:dc="http://purl.org/dc/elements/1.1/"
   xmlns:cc="http://creativecommons.org/ns#"
   xmlns:rdf="http://www.w3.org/1999/02/22-rdf-syntax-ns#"
   xmlns:svg="http://www.w3.org/2000/svg"
   xmlns="http://www.w3.org/2000/svg"
   xmlns:sodipodi="http://sodipodi.sourceforge.net/DTD/sodipodi-0.dtd"
   xmlns:inkscape="http://www.inkscape.org/namespaces/inkscape"
   width="744.09448819"
   height="1052.3622047"
   id="svg2"
   version="1.1"
   inkscape:version="0.48.4 r9939"
   sodipodi:docname="New document 1">
  <defs
     id="defs4" />
  <sodipodi:namedview
     id="base"
     pagecolor="#ffffff"
     bordercolor="#666666"
     borderopacity="1.0"
     inkscape:pageopacity="0.0"
     inkscape:pageshadow="2"
     inkscape:zoom="0.47797233"
     inkscape:cx="372.04724"
     inkscape:cy="526.18109"
     inkscape:document-units="px"
     inkscape:current-layer="layer1"
     showgrid="false"
     inkscape:window-width="1366"
     inkscape:window-height="702"
     inkscape:window-x="0"
     inkscape:window-y="27"
     inkscape:window-maximized="1" />
  <metadata
     id="metadata7">
    <rdf:RDF>
      <cc:Work
         rdf:about="">
        <dc:format>image/svg+xml</dc:format>
        <dc:type
           rdf:resource="http://purl.org/dc/dcmitype/StillImage" />
        <dc:title></dc:title>
      </cc:Work>
    </rdf:RDF>
  </metadata>
  <g
     inkscape:label="Layer 1"
     inkscape:groupmode="layer"
     id="layer1">
    <g
       id="g2999"
       transform="matrix(0.3414966,0,0,0.3414966,247.14286,232.71933)"
       inkscape:export-filename="/home/derek/git/cshnews2/CSH News 2/src/main/res/drawable-mdpi/splash.png"
       inkscape:export-xdpi="107"
       inkscape:export-ydpi="107">
      <path
         id="path2989"
         d="M 420,135 V 30 C 420,13.431 406.567,0 390,0 H 30 C 13.431,0 0,13.431 0,30 v 465 c 0,16.567 13.431,30 30,30 h 360 c 16.567,0 30,-13.433 30,-30 V 390 h -90 v 30 c 0,8.284 -6.715,15 -15,15 H 105 c -8.284,0 -15,-6.716 -15,-15 V 105 c 0,-8.284 6.716,-15 15,-15 h 210 c 8.285,0 15,6.716 15,15 v 30 h 90 z"
         clip-rule="evenodd"
         inkscape:connector-curvature="0"
         style="fill-rule:evenodd" />
      <path
         id="path2991"
         d="M 292.5,119.999 H 127.501 c -4.143,0 -7.5,3.357 -7.5,7.5 V 285 c 0,4.143 3.357,7.499 7.5,7.499 h 101.25 c 2.071,0 3.75,1.68 3.75,3.751 v 44.999 c 0,2.071 -1.679,3.75 -3.75,3.75 H 191.25 c -2.071,0 -3.75,-1.679 -3.75,-3.75 V 322.5 h -67.499 v 75 c 0,4.142 3.357,7.5 7.5,7.5 H 292.5 c 4.143,0 7.5,-3.358 7.5,-7.5 V 240 c 0,-4.143 -3.357,-7.5 -7.5,-7.5 H 191.25 c -2.071,0 -3.75,-1.679 -3.75,-3.75 l -0.001,-45 c 0,-2.071 1.679,-3.75 3.75,-3.75 h 37.501 c 2.071,0 3.75,1.679 3.75,3.75 l 0.001,18.75 H 300 v -75.001 c 0,-4.143 -3.357,-7.5 -7.5,-7.5 z"
         inkscape:connector-curvature="0" />
      <polygon
         id="polygon2993"
         points="420,225 450,225 450,0 540,0 540,525 450,525 450,300 420,300 420,360 330,360 330,165 420,165 " />
    </g>
    <flowRoot
       xml:space="preserve"
       id="flowRoot3004"
       style="font-size:64px;font-style:normal;font-weight:normal;line-height:125%;letter-spacing:0px;word-spacing:0px;fill:#000000;fill-opacity:1;stroke:none;font-family:Sans"
       transform="matrix(0.92401142,0,0,0.92401142,15.858878,10.436068)"
       inkscape:export-filename="/home/derek/git/cshnews2/CSH News 2/src/main/res/drawable-mdpi/splash.png"
       inkscape:export-xdpi="107"
       inkscape:export-ydpi="107"><flowRegion
         id="flowRegion3006"><rect
           id="rect3008"
           width="206.45161"
           height="117.74192"
           x="250"
           y="431.39444"
           style="font-size:64px" /></flowRegion><flowPara
         id="flowPara3010"
         style="font-size:72px;font-style:normal;font-variant:normal;font-weight:bold;font-stretch:normal;font-family:Century Schoolbook L;-inkscape-font-specification:Century Schoolbook L Bold">News</flowPara></flowRoot>  </g>
</svg>
